<?xml version="1.0" standalone="no"?>
<mlt LC_NUMERIC="C" version="7.23.0" title="Shotcut version 24.02.29" producer="main_bin">
  <profile description="automatic" width="1280" height="720" progressive="1" sample_aspect_num="1" sample_aspect_den="1" display_aspect_num="16" display_aspect_den="9" frame_rate_num="30" frame_rate_den="1" colorspace="709"/>
  <chain id="chain0" out="00:00:58.800">
    <property name="length">00:00:58.833</property>
    <property name="eof">pause</property>
    <property name="resource">C:/Users/lilia/Desktop/SAE 411/Jalon/Jalon rfid/vidéos/2024-04-09_11-32-06.mp4</property>
    <property name="mlt_service">avformat-novalidate</property>
    <property name="meta.media.nb_streams">2</property>
    <property name="meta.media.0.stream.type">video</property>
    <property name="meta.media.0.stream.frame_rate">30</property>
    <property name="meta.media.0.stream.sample_aspect_ratio">0</property>
    <property name="meta.media.0.codec.width">1280</property>
    <property name="meta.media.0.codec.height">720</property>
    <property name="meta.media.0.codec.rotate">0</property>
    <property name="meta.media.0.codec.pix_fmt">yuv420p</property>
    <property name="meta.media.0.codec.sample_aspect_ratio">1</property>
    <property name="meta.media.0.codec.colorspace">709</property>
    <property name="meta.media.0.codec.color_trc">1</property>
    <property name="meta.media.0.codec.name">h264</property>
    <property name="meta.media.0.codec.long_name">H.264 / AVC / MPEG-4 AVC / MPEG-4 part 10</property>
    <property name="meta.media.0.codec.bit_rate">268623</property>
    <property name="meta.attr.0.stream.handler_name.markup">VideoHandler</property>
    <property name="meta.attr.0.stream.vendor_id.markup">[0][0][0][0]</property>
    <property name="meta.media.1.stream.type">audio</property>
    <property name="meta.media.1.codec.sample_fmt">fltp</property>
    <property name="meta.media.1.codec.sample_rate">44100</property>
    <property name="meta.media.1.codec.channels">2</property>
    <property name="meta.media.1.codec.name">aac</property>
    <property name="meta.media.1.codec.long_name">AAC (Advanced Audio Coding)</property>
    <property name="meta.media.1.codec.bit_rate">2085</property>
    <property name="meta.attr.1.stream.handler_name.markup">SoundHandler</property>
    <property name="meta.attr.1.stream.vendor_id.markup">[0][0][0][0]</property>
    <property name="meta.attr.major_brand.markup">isom</property>
    <property name="meta.attr.minor_version.markup">512</property>
    <property name="meta.attr.compatible_brands.markup">isomiso2avc1mp41</property>
    <property name="meta.attr.encoder.markup">Lavf60.3.100</property>
    <property name="seekable">1</property>
    <property name="meta.media.sample_aspect_num">1</property>
    <property name="meta.media.sample_aspect_den">1</property>
    <property name="audio_index">1</property>
    <property name="video_index">0</property>
    <property name="creation_time">2024-04-09T09:33:06</property>
    <property name="vstream">0</property>
    <property name="meta.media.frame_rate_num">30</property>
    <property name="meta.media.frame_rate_den">1</property>
    <property name="meta.media.colorspace">709</property>
    <property name="meta.media.color_trc">1</property>
    <property name="meta.media.has_b_frames">1</property>
    <property name="meta.media.width">1280</property>
    <property name="meta.media.height">720</property>
    <property name="meta.media.aspect_ratio">1</property>
    <property name="meta.media.color_range">mpeg</property>
    <property name="astream">0</property>
    <property name="shotcut:skipConvert">1</property>
    <property name="xml">was here</property>
    <property name="shotcut:hash">200d909cd46d4f89b231db0741454a30</property>
  </chain>
  <chain id="chain1" out="00:00:23.533">
    <property name="length">00:00:23.567</property>
    <property name="eof">pause</property>
    <property name="resource">C:/Users/lilia/Desktop/SAE 411/Jalon/Jalon rfid/vidéos/2024-04-09_11-33-37.mp4</property>
    <property name="mlt_service">avformat-novalidate</property>
    <property name="meta.media.nb_streams">2</property>
    <property name="meta.media.0.stream.type">video</property>
    <property name="meta.media.0.stream.frame_rate">30</property>
    <property name="meta.media.0.stream.sample_aspect_ratio">0</property>
    <property name="meta.media.0.codec.width">1280</property>
    <property name="meta.media.0.codec.height">720</property>
    <property name="meta.media.0.codec.rotate">0</property>
    <property name="meta.media.0.codec.pix_fmt">yuv420p</property>
    <property name="meta.media.0.codec.sample_aspect_ratio">1</property>
    <property name="meta.media.0.codec.colorspace">709</property>
    <property name="meta.media.0.codec.color_trc">1</property>
    <property name="meta.media.0.codec.name">h264</property>
    <property name="meta.media.0.codec.long_name">H.264 / AVC / MPEG-4 AVC / MPEG-4 part 10</property>
    <property name="meta.media.0.codec.bit_rate">249065</property>
    <property name="meta.attr.0.stream.handler_name.markup">VideoHandler</property>
    <property name="meta.attr.0.stream.vendor_id.markup">[0][0][0][0]</property>
    <property name="meta.media.1.stream.type">audio</property>
    <property name="meta.media.1.codec.sample_fmt">fltp</property>
    <property name="meta.media.1.codec.sample_rate">44100</property>
    <property name="meta.media.1.codec.channels">2</property>
    <property name="meta.media.1.codec.name">aac</property>
    <property name="meta.media.1.codec.long_name">AAC (Advanced Audio Coding)</property>
    <property name="meta.media.1.codec.bit_rate">2082</property>
    <property name="meta.attr.1.stream.handler_name.markup">SoundHandler</property>
    <property name="meta.attr.1.stream.vendor_id.markup">[0][0][0][0]</property>
    <property name="meta.attr.major_brand.markup">isom</property>
    <property name="meta.attr.minor_version.markup">512</property>
    <property name="meta.attr.compatible_brands.markup">isomiso2avc1mp41</property>
    <property name="meta.attr.encoder.markup">Lavf60.3.100</property>
    <property name="seekable">1</property>
    <property name="meta.media.sample_aspect_num">1</property>
    <property name="meta.media.sample_aspect_den">1</property>
    <property name="audio_index">1</property>
    <property name="video_index">0</property>
    <property name="creation_time">2024-04-09T09:34:01</property>
    <property name="vstream">0</property>
    <property name="meta.media.frame_rate_num">30</property>
    <property name="meta.media.frame_rate_den">1</property>
    <property name="meta.media.colorspace">709</property>
    <property name="meta.media.color_trc">1</property>
    <property name="meta.media.has_b_frames">1</property>
    <property name="meta.media.width">1280</property>
    <property name="meta.media.height">720</property>
    <property name="meta.media.aspect_ratio">1</property>
    <property name="meta.media.color_range">mpeg</property>
    <property name="astream">0</property>
    <property name="shotcut:skipConvert">1</property>
    <property name="xml">was here</property>
    <property name="shotcut:hash">068217c52d5a46f6406e0bab7bc9cd67</property>
  </chain>
  <chain id="chain2" out="00:00:52.267">
    <property name="length">00:00:52.300</property>
    <property name="eof">pause</property>
    <property name="resource">C:/Users/lilia/Desktop/SAE 411/Jalon/Jalon rfid/vidéos/2024-04-09_14-32-42.mp4</property>
    <property name="mlt_service">avformat-novalidate</property>
    <property name="meta.media.nb_streams">2</property>
    <property name="meta.media.0.stream.type">video</property>
    <property name="meta.media.0.stream.frame_rate">30</property>
    <property name="meta.media.0.stream.sample_aspect_ratio">0</property>
    <property name="meta.media.0.codec.width">1280</property>
    <property name="meta.media.0.codec.height">720</property>
    <property name="meta.media.0.codec.rotate">0</property>
    <property name="meta.media.0.codec.pix_fmt">yuv420p</property>
    <property name="meta.media.0.codec.sample_aspect_ratio">1</property>
    <property name="meta.media.0.codec.colorspace">709</property>
    <property name="meta.media.0.codec.color_trc">1</property>
    <property name="meta.media.0.codec.name">h264</property>
    <property name="meta.media.0.codec.long_name">H.264 / AVC / MPEG-4 AVC / MPEG-4 part 10</property>
    <property name="meta.media.0.codec.bit_rate">311345</property>
    <property name="meta.attr.0.stream.handler_name.markup">VideoHandler</property>
    <property name="meta.attr.0.stream.vendor_id.markup">[0][0][0][0]</property>
    <property name="meta.media.1.stream.type">audio</property>
    <property name="meta.media.1.codec.sample_fmt">fltp</property>
    <property name="meta.media.1.codec.sample_rate">44100</property>
    <property name="meta.media.1.codec.channels">2</property>
    <property name="meta.media.1.codec.name">aac</property>
    <property name="meta.media.1.codec.long_name">AAC (Advanced Audio Coding)</property>
    <property name="meta.media.1.codec.bit_rate">2085</property>
    <property name="meta.attr.1.stream.handler_name.markup">SoundHandler</property>
    <property name="meta.attr.1.stream.vendor_id.markup">[0][0][0][0]</property>
    <property name="meta.attr.major_brand.markup">isom</property>
    <property name="meta.attr.minor_version.markup">512</property>
    <property name="meta.attr.compatible_brands.markup">isomiso2avc1mp41</property>
    <property name="meta.attr.encoder.markup">Lavf60.3.100</property>
    <property name="seekable">1</property>
    <property name="meta.media.sample_aspect_num">1</property>
    <property name="meta.media.sample_aspect_den">1</property>
    <property name="audio_index">1</property>
    <property name="video_index">0</property>
    <property name="creation_time">2024-04-09T12:33:35</property>
    <property name="vstream">0</property>
    <property name="meta.media.frame_rate_num">30</property>
    <property name="meta.media.frame_rate_den">1</property>
    <property name="meta.media.colorspace">709</property>
    <property name="meta.media.color_trc">1</property>
    <property name="meta.media.has_b_frames">1</property>
    <property name="meta.media.width">1280</property>
    <property name="meta.media.height">720</property>
    <property name="meta.media.aspect_ratio">1</property>
    <property name="meta.media.color_range">mpeg</property>
    <property name="astream">0</property>
    <property name="shotcut:skipConvert">1</property>
    <property name="xml">was here</property>
    <property name="shotcut:hash">db1269e0f0112aa337cdedeaba600d76</property>
  </chain>
  <chain id="chain3" out="00:00:36.967">
    <property name="length">00:00:37.000</property>
    <property name="eof">pause</property>
    <property name="resource">C:/Users/lilia/Desktop/SAE 411/Jalon/Jalon rfid/vidéos/IMG_4460.mov</property>
    <property name="mlt_service">avformat-novalidate</property>
    <property name="meta.media.nb_streams">2</property>
    <property name="meta.media.0.stream.type">video</property>
    <property name="meta.media.0.stream.frame_rate">29.973</property>
    <property name="meta.media.0.stream.sample_aspect_ratio">0</property>
    <property name="meta.media.0.codec.width">360</property>
    <property name="meta.media.0.codec.height">640</property>
    <property name="meta.media.0.codec.rotate">0</property>
    <property name="meta.media.0.codec.pix_fmt">yuv420p</property>
    <property name="meta.media.0.codec.sample_aspect_ratio">0</property>
    <property name="meta.media.0.codec.colorspace">709</property>
    <property name="meta.media.0.codec.color_trc">1</property>
    <property name="meta.media.0.codec.name">h264</property>
    <property name="meta.media.0.codec.long_name">H.264 / AVC / MPEG-4 AVC / MPEG-4 part 10</property>
    <property name="meta.media.0.codec.bit_rate">2008859</property>
    <property name="meta.attr.0.stream.creation_time.markup">2024-04-09T09:43:12.000000Z</property>
    <property name="meta.attr.0.stream.handler_name.markup">Core Media Video</property>
    <property name="meta.attr.0.stream.vendor_id.markup">[0][0][0][0]</property>
    <property name="meta.attr.0.stream.encoder.markup">H.264</property>
    <property name="meta.media.1.stream.type">audio</property>
    <property name="meta.media.1.codec.sample_fmt">fltp</property>
    <property name="meta.media.1.codec.sample_rate">44100</property>
    <property name="meta.media.1.codec.channels">2</property>
    <property name="meta.media.1.codec.name">aac</property>
    <property name="meta.media.1.codec.long_name">AAC (Advanced Audio Coding)</property>
    <property name="meta.media.1.codec.bit_rate">125377</property>
    <property name="meta.attr.1.stream.creation_time.markup">2024-04-09T09:43:12.000000Z</property>
    <property name="meta.attr.1.stream.handler_name.markup">Core Media Audio</property>
    <property name="meta.attr.1.stream.vendor_id.markup">[0][0][0][0]</property>
    <property name="meta.attr.major_brand.markup">qt  </property>
    <property name="meta.attr.minor_version.markup">0</property>
    <property name="meta.attr.compatible_brands.markup">qt  </property>
    <property name="meta.attr.creation_time.markup">2024-04-09T09:43:12.000000Z</property>
    <property name="seekable">1</property>
    <property name="meta.media.sample_aspect_num">1</property>
    <property name="meta.media.sample_aspect_den">1</property>
    <property name="audio_index">1</property>
    <property name="video_index">0</property>
    <property name="creation_time">2024-04-09T09:43:12</property>
    <property name="vstream">0</property>
    <property name="meta.media.frame_rate_num">1109</property>
    <property name="meta.media.frame_rate_den">37</property>
    <property name="meta.media.colorspace">709</property>
    <property name="meta.media.color_trc">1</property>
    <property name="meta.media.has_b_frames">0</property>
    <property name="meta.media.width">360</property>
    <property name="meta.media.height">640</property>
    <property name="meta.media.aspect_ratio">1</property>
    <property name="meta.media.color_range">mpeg</property>
    <property name="astream">0</property>
    <property name="shotcut:skipConvert">1</property>
    <property name="xml">was here</property>
    <property name="shotcut:hash">9e19071f61726eb25ead96941e8b9285</property>
  </chain>
  <chain id="chain4" out="00:00:02.533">
    <property name="length">00:00:02.567</property>
    <property name="eof">pause</property>
    <property name="resource">C:/Users/lilia/Desktop/SAE 411/Jalon/Jalon rfid/vidéos/2024-04-09_11-31-50.mp4</property>
    <property name="mlt_service">avformat-novalidate</property>
    <property name="meta.media.nb_streams">2</property>
    <property name="meta.media.0.stream.type">video</property>
    <property name="meta.media.0.stream.frame_rate">30</property>
    <property name="meta.media.0.stream.sample_aspect_ratio">0</property>
    <property name="meta.media.0.codec.width">1280</property>
    <property name="meta.media.0.codec.height">720</property>
    <property name="meta.media.0.codec.rotate">0</property>
    <property name="meta.media.0.codec.pix_fmt">yuv420p</property>
    <property name="meta.media.0.codec.sample_aspect_ratio">1</property>
    <property name="meta.media.0.codec.colorspace">709</property>
    <property name="meta.media.0.codec.color_trc">1</property>
    <property name="meta.media.0.codec.name">h264</property>
    <property name="meta.media.0.codec.long_name">H.264 / AVC / MPEG-4 AVC / MPEG-4 part 10</property>
    <property name="meta.media.0.codec.bit_rate">401841</property>
    <property name="meta.attr.0.stream.handler_name.markup">VideoHandler</property>
    <property name="meta.attr.0.stream.vendor_id.markup">[0][0][0][0]</property>
    <property name="meta.media.1.stream.type">audio</property>
    <property name="meta.media.1.codec.sample_fmt">fltp</property>
    <property name="meta.media.1.codec.sample_rate">44100</property>
    <property name="meta.media.1.codec.channels">2</property>
    <property name="meta.media.1.codec.name">aac</property>
    <property name="meta.media.1.codec.long_name">AAC (Advanced Audio Coding)</property>
    <property name="meta.media.1.codec.bit_rate">2067</property>
    <property name="meta.attr.1.stream.handler_name.markup">SoundHandler</property>
    <property name="meta.attr.1.stream.vendor_id.markup">[0][0][0][0]</property>
    <property name="meta.attr.major_brand.markup">isom</property>
    <property name="meta.attr.minor_version.markup">512</property>
    <property name="meta.attr.compatible_brands.markup">isomiso2avc1mp41</property>
    <property name="meta.attr.encoder.markup">Lavf60.3.100</property>
    <property name="seekable">1</property>
    <property name="meta.media.sample_aspect_num">1</property>
    <property name="meta.media.sample_aspect_den">1</property>
    <property name="audio_index">1</property>
    <property name="video_index">0</property>
    <property name="creation_time">2024-04-09T09:31:53</property>
    <property name="vstream">0</property>
    <property name="meta.media.frame_rate_num">30</property>
    <property name="meta.media.frame_rate_den">1</property>
    <property name="meta.media.colorspace">709</property>
    <property name="meta.media.color_trc">1</property>
    <property name="meta.media.has_b_frames">1</property>
    <property name="meta.media.width">1280</property>
    <property name="meta.media.height">720</property>
    <property name="meta.media.aspect_ratio">1</property>
    <property name="meta.media.color_range">mpeg</property>
    <property name="astream">0</property>
    <property name="shotcut:skipConvert">1</property>
    <property name="xml">was here</property>
    <property name="shotcut:hash">1e27ec9423d90f3d4fb95cf6adf39196</property>
  </chain>
  <chain id="chain5" out="00:00:42.033">
    <property name="length">00:00:42.067</property>
    <property name="eof">pause</property>
    <property name="resource">C:/Users/lilia/Desktop/SAE 411/Jalon/Jalon rfid/vidéos/2024-04-09_11-31-04.mp4</property>
    <property name="mlt_service">avformat-novalidate</property>
    <property name="meta.media.nb_streams">2</property>
    <property name="meta.media.0.stream.type">video</property>
    <property name="meta.media.0.stream.frame_rate">30</property>
    <property name="meta.media.0.stream.sample_aspect_ratio">0</property>
    <property name="meta.media.0.codec.width">1280</property>
    <property name="meta.media.0.codec.height">720</property>
    <property name="meta.media.0.codec.rotate">0</property>
    <property name="meta.media.0.codec.pix_fmt">yuv420p</property>
    <property name="meta.media.0.codec.sample_aspect_ratio">1</property>
    <property name="meta.media.0.codec.colorspace">709</property>
    <property name="meta.media.0.codec.color_trc">1</property>
    <property name="meta.media.0.codec.name">h264</property>
    <property name="meta.media.0.codec.long_name">H.264 / AVC / MPEG-4 AVC / MPEG-4 part 10</property>
    <property name="meta.media.0.codec.bit_rate">267478</property>
    <property name="meta.attr.0.stream.handler_name.markup">VideoHandler</property>
    <property name="meta.attr.0.stream.vendor_id.markup">[0][0][0][0]</property>
    <property name="meta.media.1.stream.type">audio</property>
    <property name="meta.media.1.codec.sample_fmt">fltp</property>
    <property name="meta.media.1.codec.sample_rate">44100</property>
    <property name="meta.media.1.codec.channels">2</property>
    <property name="meta.media.1.codec.name">aac</property>
    <property name="meta.media.1.codec.long_name">AAC (Advanced Audio Coding)</property>
    <property name="meta.media.1.codec.bit_rate">2087</property>
    <property name="meta.attr.1.stream.handler_name.markup">SoundHandler</property>
    <property name="meta.attr.1.stream.vendor_id.markup">[0][0][0][0]</property>
    <property name="meta.attr.major_brand.markup">isom</property>
    <property name="meta.attr.minor_version.markup">512</property>
    <property name="meta.attr.compatible_brands.markup">isomiso2avc1mp41</property>
    <property name="meta.attr.encoder.markup">Lavf60.3.100</property>
    <property name="seekable">1</property>
    <property name="meta.media.sample_aspect_num">1</property>
    <property name="meta.media.sample_aspect_den">1</property>
    <property name="audio_index">1</property>
    <property name="video_index">0</property>
    <property name="creation_time">2024-04-09T09:31:47</property>
    <property name="vstream">0</property>
    <property name="meta.media.frame_rate_num">30</property>
    <property name="meta.media.frame_rate_den">1</property>
    <property name="meta.media.colorspace">709</property>
    <property name="meta.media.color_trc">1</property>
    <property name="meta.media.has_b_frames">1</property>
    <property name="meta.media.width">1280</property>
    <property name="meta.media.height">720</property>
    <property name="meta.media.aspect_ratio">1</property>
    <property name="meta.media.color_range">mpeg</property>
    <property name="astream">0</property>
    <property name="shotcut:skipConvert">1</property>
    <property name="xml">was here</property>
    <property name="shotcut:hash">e625310328c7db6f49dd8072ae07d2fd</property>
  </chain>
  <playlist id="main_bin">
    <property name="xml_retain">1</property>
    <entry producer="chain0" in="00:00:00.000" out="00:00:58.800"/>
    <entry producer="chain1" in="00:00:00.000" out="00:00:23.533"/>
    <entry producer="chain2" in="00:00:00.000" out="00:00:52.267"/>
    <entry producer="chain3" in="00:00:00.000" out="00:00:36.967"/>
    <entry producer="chain4" in="00:00:00.000" out="00:00:02.533"/>
    <entry producer="chain5" in="00:00:00.000" out="00:00:42.033"/>
  </playlist>
  <producer id="black" in="00:00:00.000" out="00:01:35.600">
    <property name="length">00:01:35.633</property>
    <property name="eof">pause</property>
    <property name="resource">0</property>
    <property name="aspect_ratio">1</property>
    <property name="mlt_service">color</property>
    <property name="mlt_image_format">rgba</property>
    <property name="set.test_audio">0</property>
  </producer>
  <playlist id="background">
    <entry producer="black" in="00:00:00.000" out="00:01:35.600"/>
  </playlist>
  <chain id="chain6" out="00:00:36.967">
    <property name="length">00:00:37.000</property>
    <property name="eof">pause</property>
    <property name="resource">C:/Users/lilia/Desktop/SAE 411/Jalon/Jalon rfid/vidéos/IMG_4460.mov</property>
    <property name="mlt_service">avformat-novalidate</property>
    <property name="meta.media.nb_streams">2</property>
    <property name="meta.media.0.stream.type">video</property>
    <property name="meta.media.0.stream.frame_rate">29.973</property>
    <property name="meta.media.0.stream.sample_aspect_ratio">0</property>
    <property name="meta.media.0.codec.width">360</property>
    <property name="meta.media.0.codec.height">640</property>
    <property name="meta.media.0.codec.rotate">0</property>
    <property name="meta.media.0.codec.pix_fmt">yuv420p</property>
    <property name="meta.media.0.codec.sample_aspect_ratio">0</property>
    <property name="meta.media.0.codec.colorspace">709</property>
    <property name="meta.media.0.codec.color_trc">1</property>
    <property name="meta.media.0.codec.name">h264</property>
    <property name="meta.media.0.codec.long_name">H.264 / AVC / MPEG-4 AVC / MPEG-4 part 10</property>
    <property name="meta.media.0.codec.bit_rate">2008859</property>
    <property name="meta.attr.0.stream.creation_time.markup">2024-04-09T09:43:12.000000Z</property>
    <property name="meta.attr.0.stream.handler_name.markup">Core Media Video</property>
    <property name="meta.attr.0.stream.vendor_id.markup">[0][0][0][0]</property>
    <property name="meta.attr.0.stream.encoder.markup">H.264</property>
    <property name="meta.media.1.stream.type">audio</property>
    <property name="meta.media.1.codec.sample_fmt">fltp</property>
    <property name="meta.media.1.codec.sample_rate">44100</property>
    <property name="meta.media.1.codec.channels">2</property>
    <property name="meta.media.1.codec.name">aac</property>
    <property name="meta.media.1.codec.long_name">AAC (Advanced Audio Coding)</property>
    <property name="meta.media.1.codec.bit_rate">125377</property>
    <property name="meta.attr.1.stream.creation_time.markup">2024-04-09T09:43:12.000000Z</property>
    <property name="meta.attr.1.stream.handler_name.markup">Core Media Audio</property>
    <property name="meta.attr.1.stream.vendor_id.markup">[0][0][0][0]</property>
    <property name="meta.attr.major_brand.markup">qt  </property>
    <property name="meta.attr.minor_version.markup">0</property>
    <property name="meta.attr.compatible_brands.markup">qt  </property>
    <property name="meta.attr.creation_time.markup">2024-04-09T09:43:12.000000Z</property>
    <property name="seekable">1</property>
    <property name="meta.media.sample_aspect_num">1</property>
    <property name="meta.media.sample_aspect_den">1</property>
    <property name="audio_index">1</property>
    <property name="video_index">0</property>
    <property name="creation_time">2024-04-09T09:43:12</property>
    <property name="vstream">0</property>
    <property name="meta.media.frame_rate_num">1109</property>
    <property name="meta.media.frame_rate_den">37</property>
    <property name="meta.media.colorspace">709</property>
    <property name="meta.media.color_trc">1</property>
    <property name="meta.media.has_b_frames">0</property>
    <property name="meta.media.width">360</property>
    <property name="meta.media.height">640</property>
    <property name="meta.media.aspect_ratio">1</property>
    <property name="meta.media.color_range">mpeg</property>
    <property name="astream">0</property>
    <property name="shotcut:skipConvert">1</property>
    <property name="xml">was here</property>
    <property name="shotcut:hash">9e19071f61726eb25ead96941e8b9285</property>
    <property name="meta.media.top_field_first">0</property>
    <property name="meta.media.progressive">1</property>
    <property name="shotcut:caption">IMG_4460.mov</property>
  </chain>
  <chain id="chain7" out="00:00:52.267">
    <property name="length">00:00:52.300</property>
    <property name="eof">pause</property>
    <property name="resource">C:/Users/lilia/Desktop/SAE 411/Jalon/Jalon rfid/vidéos/2024-04-09_14-32-42.mp4</property>
    <property name="mlt_service">avformat-novalidate</property>
    <property name="meta.media.nb_streams">2</property>
    <property name="meta.media.0.stream.type">video</property>
    <property name="meta.media.0.stream.frame_rate">30</property>
    <property name="meta.media.0.stream.sample_aspect_ratio">0</property>
    <property name="meta.media.0.codec.width">1280</property>
    <property name="meta.media.0.codec.height">720</property>
    <property name="meta.media.0.codec.rotate">0</property>
    <property name="meta.media.0.codec.pix_fmt">yuv420p</property>
    <property name="meta.media.0.codec.sample_aspect_ratio">1</property>
    <property name="meta.media.0.codec.colorspace">709</property>
    <property name="meta.media.0.codec.color_trc">1</property>
    <property name="meta.media.0.codec.name">h264</property>
    <property name="meta.media.0.codec.long_name">H.264 / AVC / MPEG-4 AVC / MPEG-4 part 10</property>
    <property name="meta.media.0.codec.bit_rate">311345</property>
    <property name="meta.attr.0.stream.handler_name.markup">VideoHandler</property>
    <property name="meta.attr.0.stream.vendor_id.markup">[0][0][0][0]</property>
    <property name="meta.media.1.stream.type">audio</property>
    <property name="meta.media.1.codec.sample_fmt">fltp</property>
    <property name="meta.media.1.codec.sample_rate">44100</property>
    <property name="meta.media.1.codec.channels">2</property>
    <property name="meta.media.1.codec.name">aac</property>
    <property name="meta.media.1.codec.long_name">AAC (Advanced Audio Coding)</property>
    <property name="meta.media.1.codec.bit_rate">2085</property>
    <property name="meta.attr.1.stream.handler_name.markup">SoundHandler</property>
    <property name="meta.attr.1.stream.vendor_id.markup">[0][0][0][0]</property>
    <property name="meta.attr.major_brand.markup">isom</property>
    <property name="meta.attr.minor_version.markup">512</property>
    <property name="meta.attr.compatible_brands.markup">isomiso2avc1mp41</property>
    <property name="meta.attr.encoder.markup">Lavf60.3.100</property>
    <property name="seekable">1</property>
    <property name="meta.media.sample_aspect_num">1</property>
    <property name="meta.media.sample_aspect_den">1</property>
    <property name="audio_index">1</property>
    <property name="video_index">0</property>
    <property name="creation_time">2024-04-09T12:33:35</property>
    <property name="vstream">0</property>
    <property name="meta.media.frame_rate_num">30</property>
    <property name="meta.media.frame_rate_den">1</property>
    <property name="meta.media.colorspace">709</property>
    <property name="meta.media.color_trc">1</property>
    <property name="meta.media.has_b_frames">1</property>
    <property name="meta.media.width">1280</property>
    <property name="meta.media.height">720</property>
    <property name="meta.media.aspect_ratio">1</property>
    <property name="meta.media.color_range">mpeg</property>
    <property name="astream">0</property>
    <property name="shotcut:skipConvert">1</property>
    <property name="xml">was here</property>
    <property name="shotcut:hash">db1269e0f0112aa337cdedeaba600d76</property>
    <property name="meta.media.top_field_first">0</property>
    <property name="meta.media.progressive">1</property>
    <property name="shotcut:caption">2024-04-09_14-32-42.mp4</property>
  </chain>
  <chain id="chain8" out="00:00:36.967">
    <property name="length">00:00:37.000</property>
    <property name="eof">pause</property>
    <property name="resource">C:/Users/lilia/Desktop/SAE 411/Jalon/Jalon rfid/vidéos/IMG_4460.mov</property>
    <property name="mlt_service">avformat-novalidate</property>
    <property name="meta.media.nb_streams">2</property>
    <property name="meta.media.0.stream.type">video</property>
    <property name="meta.media.0.stream.frame_rate">29.973</property>
    <property name="meta.media.0.stream.sample_aspect_ratio">0</property>
    <property name="meta.media.0.codec.width">360</property>
    <property name="meta.media.0.codec.height">640</property>
    <property name="meta.media.0.codec.rotate">0</property>
    <property name="meta.media.0.codec.pix_fmt">yuv420p</property>
    <property name="meta.media.0.codec.sample_aspect_ratio">0</property>
    <property name="meta.media.0.codec.colorspace">709</property>
    <property name="meta.media.0.codec.color_trc">1</property>
    <property name="meta.media.0.codec.name">h264</property>
    <property name="meta.media.0.codec.long_name">H.264 / AVC / MPEG-4 AVC / MPEG-4 part 10</property>
    <property name="meta.media.0.codec.bit_rate">2008859</property>
    <property name="meta.attr.0.stream.creation_time.markup">2024-04-09T09:43:12.000000Z</property>
    <property name="meta.attr.0.stream.handler_name.markup">Core Media Video</property>
    <property name="meta.attr.0.stream.vendor_id.markup">[0][0][0][0]</property>
    <property name="meta.attr.0.stream.encoder.markup">H.264</property>
    <property name="meta.media.1.stream.type">audio</property>
    <property name="meta.media.1.codec.sample_fmt">fltp</property>
    <property name="meta.media.1.codec.sample_rate">44100</property>
    <property name="meta.media.1.codec.channels">2</property>
    <property name="meta.media.1.codec.name">aac</property>
    <property name="meta.media.1.codec.long_name">AAC (Advanced Audio Coding)</property>
    <property name="meta.media.1.codec.bit_rate">125377</property>
    <property name="meta.attr.1.stream.creation_time.markup">2024-04-09T09:43:12.000000Z</property>
    <property name="meta.attr.1.stream.handler_name.markup">Core Media Audio</property>
    <property name="meta.attr.1.stream.vendor_id.markup">[0][0][0][0]</property>
    <property name="meta.attr.major_brand.markup">qt  </property>
    <property name="meta.attr.minor_version.markup">0</property>
    <property name="meta.attr.compatible_brands.markup">qt  </property>
    <property name="meta.attr.creation_time.markup">2024-04-09T09:43:12.000000Z</property>
    <property name="seekable">1</property>
    <property name="meta.media.sample_aspect_num">1</property>
    <property name="meta.media.sample_aspect_den">1</property>
    <property name="audio_index">1</property>
    <property name="video_index">0</property>
    <property name="creation_time">2024-04-09T09:43:12</property>
    <property name="vstream">0</property>
    <property name="meta.media.frame_rate_num">1109</property>
    <property name="meta.media.frame_rate_den">37</property>
    <property name="meta.media.colorspace">709</property>
    <property name="meta.media.color_trc">1</property>
    <property name="meta.media.has_b_frames">0</property>
    <property name="meta.media.width">360</property>
    <property name="meta.media.height">640</property>
    <property name="meta.media.aspect_ratio">1</property>
    <property name="meta.media.color_range">mpeg</property>
    <property name="astream">0</property>
    <property name="shotcut:skipConvert">1</property>
    <property name="xml">was here</property>
    <property name="shotcut:hash">9e19071f61726eb25ead96941e8b9285</property>
    <property name="meta.media.top_field_first">0</property>
    <property name="meta.media.progressive">1</property>
    <property name="shotcut:caption">IMG_4460.mov</property>
  </chain>
  <chain id="chain9" out="00:00:58.800">
    <property name="length">00:00:58.833</property>
    <property name="eof">pause</property>
    <property name="resource">C:/Users/lilia/Desktop/SAE 411/Jalon/Jalon rfid/vidéos/2024-04-09_11-32-06.mp4</property>
    <property name="mlt_service">avformat-novalidate</property>
    <property name="meta.media.nb_streams">2</property>
    <property name="meta.media.0.stream.type">video</property>
    <property name="meta.media.0.stream.frame_rate">30</property>
    <property name="meta.media.0.stream.sample_aspect_ratio">0</property>
    <property name="meta.media.0.codec.width">1280</property>
    <property name="meta.media.0.codec.height">720</property>
    <property name="meta.media.0.codec.rotate">0</property>
    <property name="meta.media.0.codec.pix_fmt">yuv420p</property>
    <property name="meta.media.0.codec.sample_aspect_ratio">1</property>
    <property name="meta.media.0.codec.colorspace">709</property>
    <property name="meta.media.0.codec.color_trc">1</property>
    <property name="meta.media.0.codec.name">h264</property>
    <property name="meta.media.0.codec.long_name">H.264 / AVC / MPEG-4 AVC / MPEG-4 part 10</property>
    <property name="meta.media.0.codec.bit_rate">268623</property>
    <property name="meta.attr.0.stream.handler_name.markup">VideoHandler</property>
    <property name="meta.attr.0.stream.vendor_id.markup">[0][0][0][0]</property>
    <property name="meta.media.1.stream.type">audio</property>
    <property name="meta.media.1.codec.sample_fmt">fltp</property>
    <property name="meta.media.1.codec.sample_rate">44100</property>
    <property name="meta.media.1.codec.channels">2</property>
    <property name="meta.media.1.codec.name">aac</property>
    <property name="meta.media.1.codec.long_name">AAC (Advanced Audio Coding)</property>
    <property name="meta.media.1.codec.bit_rate">2085</property>
    <property name="meta.attr.1.stream.handler_name.markup">SoundHandler</property>
    <property name="meta.attr.1.stream.vendor_id.markup">[0][0][0][0]</property>
    <property name="meta.attr.major_brand.markup">isom</property>
    <property name="meta.attr.minor_version.markup">512</property>
    <property name="meta.attr.compatible_brands.markup">isomiso2avc1mp41</property>
    <property name="meta.attr.encoder.markup">Lavf60.3.100</property>
    <property name="seekable">1</property>
    <property name="meta.media.sample_aspect_num">1</property>
    <property name="meta.media.sample_aspect_den">1</property>
    <property name="audio_index">1</property>
    <property name="video_index">0</property>
    <property name="creation_time">2024-04-09T09:33:06</property>
    <property name="vstream">0</property>
    <property name="meta.media.frame_rate_num">30</property>
    <property name="meta.media.frame_rate_den">1</property>
    <property name="meta.media.colorspace">709</property>
    <property name="meta.media.color_trc">1</property>
    <property name="meta.media.has_b_frames">1</property>
    <property name="meta.media.width">1280</property>
    <property name="meta.media.height">720</property>
    <property name="meta.media.aspect_ratio">1</property>
    <property name="meta.media.color_range">mpeg</property>
    <property name="astream">0</property>
    <property name="shotcut:skipConvert">1</property>
    <property name="xml">was here</property>
    <property name="shotcut:hash">200d909cd46d4f89b231db0741454a30</property>
    <property name="meta.media.top_field_first">0</property>
    <property name="meta.media.progressive">1</property>
    <property name="shotcut:caption">2024-04-09_11-32-06.mp4</property>
  </chain>
  <chain id="chain10" out="00:00:36.967">
    <property name="length">00:00:37.000</property>
    <property name="eof">pause</property>
    <property name="resource">C:/Users/lilia/Desktop/SAE 411/Jalon/Jalon rfid/vidéos/IMG_4460.mov</property>
    <property name="mlt_service">avformat-novalidate</property>
    <property name="meta.media.nb_streams">2</property>
    <property name="meta.media.0.stream.type">video</property>
    <property name="meta.media.0.stream.frame_rate">29.973</property>
    <property name="meta.media.0.stream.sample_aspect_ratio">0</property>
    <property name="meta.media.0.codec.width">360</property>
    <property name="meta.media.0.codec.height">640</property>
    <property name="meta.media.0.codec.rotate">0</property>
    <property name="meta.media.0.codec.pix_fmt">yuv420p</property>
    <property name="meta.media.0.codec.sample_aspect_ratio">0</property>
    <property name="meta.media.0.codec.colorspace">709</property>
    <property name="meta.media.0.codec.color_trc">1</property>
    <property name="meta.media.0.codec.name">h264</property>
    <property name="meta.media.0.codec.long_name">H.264 / AVC / MPEG-4 AVC / MPEG-4 part 10</property>
    <property name="meta.media.0.codec.bit_rate">2008859</property>
    <property name="meta.attr.0.stream.creation_time.markup">2024-04-09T09:43:12.000000Z</property>
    <property name="meta.attr.0.stream.handler_name.markup">Core Media Video</property>
    <property name="meta.attr.0.stream.vendor_id.markup">[0][0][0][0]</property>
    <property name="meta.attr.0.stream.encoder.markup">H.264</property>
    <property name="meta.media.1.stream.type">audio</property>
    <property name="meta.media.1.codec.sample_fmt">fltp</property>
    <property name="meta.media.1.codec.sample_rate">44100</property>
    <property name="meta.media.1.codec.channels">2</property>
    <property name="meta.media.1.codec.name">aac</property>
    <property name="meta.media.1.codec.long_name">AAC (Advanced Audio Coding)</property>
    <property name="meta.media.1.codec.bit_rate">125377</property>
    <property name="meta.attr.1.stream.creation_time.markup">2024-04-09T09:43:12.000000Z</property>
    <property name="meta.attr.1.stream.handler_name.markup">Core Media Audio</property>
    <property name="meta.attr.1.stream.vendor_id.markup">[0][0][0][0]</property>
    <property name="meta.attr.major_brand.markup">qt  </property>
    <property name="meta.attr.minor_version.markup">0</property>
    <property name="meta.attr.compatible_brands.markup">qt  </property>
    <property name="meta.attr.creation_time.markup">2024-04-09T09:43:12.000000Z</property>
    <property name="seekable">1</property>
    <property name="meta.media.sample_aspect_num">1</property>
    <property name="meta.media.sample_aspect_den">1</property>
    <property name="audio_index">1</property>
    <property name="video_index">0</property>
    <property name="creation_time">2024-04-09T09:43:12</property>
    <property name="vstream">0</property>
    <property name="meta.media.frame_rate_num">1109</property>
    <property name="meta.media.frame_rate_den">37</property>
    <property name="meta.media.colorspace">709</property>
    <property name="meta.media.color_trc">1</property>
    <property name="meta.media.has_b_frames">0</property>
    <property name="meta.media.width">360</property>
    <property name="meta.media.height">640</property>
    <property name="meta.media.aspect_ratio">1</property>
    <property name="meta.media.color_range">mpeg</property>
    <property name="astream">0</property>
    <property name="shotcut:skipConvert">1</property>
    <property name="xml">was here</property>
    <property name="shotcut:hash">9e19071f61726eb25ead96941e8b9285</property>
    <property name="meta.media.top_field_first">0</property>
    <property name="meta.media.progressive">1</property>
    <property name="shotcut:caption">IMG_4460.mov</property>
  </chain>
  <chain id="chain11" out="00:00:58.800">
    <property name="length">00:00:58.833</property>
    <property name="eof">pause</property>
    <property name="resource">C:/Users/lilia/Desktop/SAE 411/Jalon/Jalon rfid/vidéos/2024-04-09_11-32-06.mp4</property>
    <property name="mlt_service">avformat-novalidate</property>
    <property name="meta.media.nb_streams">2</property>
    <property name="meta.media.0.stream.type">video</property>
    <property name="meta.media.0.stream.frame_rate">30</property>
    <property name="meta.media.0.stream.sample_aspect_ratio">0</property>
    <property name="meta.media.0.codec.width">1280</property>
    <property name="meta.media.0.codec.height">720</property>
    <property name="meta.media.0.codec.rotate">0</property>
    <property name="meta.media.0.codec.pix_fmt">yuv420p</property>
    <property name="meta.media.0.codec.sample_aspect_ratio">1</property>
    <property name="meta.media.0.codec.colorspace">709</property>
    <property name="meta.media.0.codec.color_trc">1</property>
    <property name="meta.media.0.codec.name">h264</property>
    <property name="meta.media.0.codec.long_name">H.264 / AVC / MPEG-4 AVC / MPEG-4 part 10</property>
    <property name="meta.media.0.codec.bit_rate">268623</property>
    <property name="meta.attr.0.stream.handler_name.markup">VideoHandler</property>
    <property name="meta.attr.0.stream.vendor_id.markup">[0][0][0][0]</property>
    <property name="meta.media.1.stream.type">audio</property>
    <property name="meta.media.1.codec.sample_fmt">fltp</property>
    <property name="meta.media.1.codec.sample_rate">44100</property>
    <property name="meta.media.1.codec.channels">2</property>
    <property name="meta.media.1.codec.name">aac</property>
    <property name="meta.media.1.codec.long_name">AAC (Advanced Audio Coding)</property>
    <property name="meta.media.1.codec.bit_rate">2085</property>
    <property name="meta.attr.1.stream.handler_name.markup">SoundHandler</property>
    <property name="meta.attr.1.stream.vendor_id.markup">[0][0][0][0]</property>
    <property name="meta.attr.major_brand.markup">isom</property>
    <property name="meta.attr.minor_version.markup">512</property>
    <property name="meta.attr.compatible_brands.markup">isomiso2avc1mp41</property>
    <property name="meta.attr.encoder.markup">Lavf60.3.100</property>
    <property name="seekable">1</property>
    <property name="meta.media.sample_aspect_num">1</property>
    <property name="meta.media.sample_aspect_den">1</property>
    <property name="audio_index">1</property>
    <property name="video_index">0</property>
    <property name="creation_time">2024-04-09T09:33:06</property>
    <property name="vstream">0</property>
    <property name="meta.media.frame_rate_num">30</property>
    <property name="meta.media.frame_rate_den">1</property>
    <property name="meta.media.colorspace">709</property>
    <property name="meta.media.color_trc">1</property>
    <property name="meta.media.has_b_frames">1</property>
    <property name="meta.media.width">1280</property>
    <property name="meta.media.height">720</property>
    <property name="meta.media.aspect_ratio">1</property>
    <property name="meta.media.color_range">mpeg</property>
    <property name="astream">0</property>
    <property name="shotcut:skipConvert">1</property>
    <property name="xml">was here</property>
    <property name="shotcut:hash">200d909cd46d4f89b231db0741454a30</property>
    <property name="meta.media.top_field_first">0</property>
    <property name="meta.media.progressive">1</property>
    <property name="shotcut:caption">2024-04-09_11-32-06.mp4</property>
  </chain>
  <chain id="chain12" out="00:00:36.967">
    <property name="length">00:00:37.000</property>
    <property name="eof">pause</property>
    <property name="resource">C:/Users/lilia/Desktop/SAE 411/Jalon/Jalon rfid/vidéos/IMG_4460.mov</property>
    <property name="mlt_service">avformat-novalidate</property>
    <property name="meta.media.nb_streams">2</property>
    <property name="meta.media.0.stream.type">video</property>
    <property name="meta.media.0.stream.frame_rate">29.973</property>
    <property name="meta.media.0.stream.sample_aspect_ratio">0</property>
    <property name="meta.media.0.codec.width">360</property>
    <property name="meta.media.0.codec.height">640</property>
    <property name="meta.media.0.codec.rotate">0</property>
    <property name="meta.media.0.codec.pix_fmt">yuv420p</property>
    <property name="meta.media.0.codec.sample_aspect_ratio">0</property>
    <property name="meta.media.0.codec.colorspace">709</property>
    <property name="meta.media.0.codec.color_trc">1</property>
    <property name="meta.media.0.codec.name">h264</property>
    <property name="meta.media.0.codec.long_name">H.264 / AVC / MPEG-4 AVC / MPEG-4 part 10</property>
    <property name="meta.media.0.codec.bit_rate">2008859</property>
    <property name="meta.attr.0.stream.creation_time.markup">2024-04-09T09:43:12.000000Z</property>
    <property name="meta.attr.0.stream.handler_name.markup">Core Media Video</property>
    <property name="meta.attr.0.stream.vendor_id.markup">[0][0][0][0]</property>
    <property name="meta.attr.0.stream.encoder.markup">H.264</property>
    <property name="meta.media.1.stream.type">audio</property>
    <property name="meta.media.1.codec.sample_fmt">fltp</property>
    <property name="meta.media.1.codec.sample_rate">44100</property>
    <property name="meta.media.1.codec.channels">2</property>
    <property name="meta.media.1.codec.name">aac</property>
    <property name="meta.media.1.codec.long_name">AAC (Advanced Audio Coding)</property>
    <property name="meta.media.1.codec.bit_rate">125377</property>
    <property name="meta.attr.1.stream.creation_time.markup">2024-04-09T09:43:12.000000Z</property>
    <property name="meta.attr.1.stream.handler_name.markup">Core Media Audio</property>
    <property name="meta.attr.1.stream.vendor_id.markup">[0][0][0][0]</property>
    <property name="meta.attr.major_brand.markup">qt  </property>
    <property name="meta.attr.minor_version.markup">0</property>
    <property name="meta.attr.compatible_brands.markup">qt  </property>
    <property name="meta.attr.creation_time.markup">2024-04-09T09:43:12.000000Z</property>
    <property name="seekable">1</property>
    <property name="meta.media.sample_aspect_num">1</property>
    <property name="meta.media.sample_aspect_den">1</property>
    <property name="audio_index">1</property>
    <property name="video_index">0</property>
    <property name="creation_time">2024-04-09T09:43:12</property>
    <property name="vstream">0</property>
    <property name="meta.media.frame_rate_num">1109</property>
    <property name="meta.media.frame_rate_den">37</property>
    <property name="meta.media.colorspace">709</property>
    <property name="meta.media.color_trc">1</property>
    <property name="meta.media.has_b_frames">0</property>
    <property name="meta.media.width">360</property>
    <property name="meta.media.height">640</property>
    <property name="meta.media.aspect_ratio">1</property>
    <property name="meta.media.color_range">mpeg</property>
    <property name="astream">0</property>
    <property name="shotcut:skipConvert">1</property>
    <property name="xml">was here</property>
    <property name="shotcut:hash">9e19071f61726eb25ead96941e8b9285</property>
    <property name="meta.media.top_field_first">0</property>
    <property name="meta.media.progressive">1</property>
    <property name="shotcut:caption">IMG_4460.mov</property>
  </chain>
  <chain id="chain13" out="00:00:58.800">
    <property name="length">00:00:58.833</property>
    <property name="eof">pause</property>
    <property name="resource">C:/Users/lilia/Desktop/SAE 411/Jalon/Jalon rfid/vidéos/2024-04-09_11-32-06.mp4</property>
    <property name="mlt_service">avformat-novalidate</property>
    <property name="meta.media.nb_streams">2</property>
    <property name="meta.media.0.stream.type">video</property>
    <property name="meta.media.0.stream.frame_rate">30</property>
    <property name="meta.media.0.stream.sample_aspect_ratio">0</property>
    <property name="meta.media.0.codec.width">1280</property>
    <property name="meta.media.0.codec.height">720</property>
    <property name="meta.media.0.codec.rotate">0</property>
    <property name="meta.media.0.codec.pix_fmt">yuv420p</property>
    <property name="meta.media.0.codec.sample_aspect_ratio">1</property>
    <property name="meta.media.0.codec.colorspace">709</property>
    <property name="meta.media.0.codec.color_trc">1</property>
    <property name="meta.media.0.codec.name">h264</property>
    <property name="meta.media.0.codec.long_name">H.264 / AVC / MPEG-4 AVC / MPEG-4 part 10</property>
    <property name="meta.media.0.codec.bit_rate">268623</property>
    <property name="meta.attr.0.stream.handler_name.markup">VideoHandler</property>
    <property name="meta.attr.0.stream.vendor_id.markup">[0][0][0][0]</property>
    <property name="meta.media.1.stream.type">audio</property>
    <property name="meta.media.1.codec.sample_fmt">fltp</property>
    <property name="meta.media.1.codec.sample_rate">44100</property>
    <property name="meta.media.1.codec.channels">2</property>
    <property name="meta.media.1.codec.name">aac</property>
    <property name="meta.media.1.codec.long_name">AAC (Advanced Audio Coding)</property>
    <property name="meta.media.1.codec.bit_rate">2085</property>
    <property name="meta.attr.1.stream.handler_name.markup">SoundHandler</property>
    <property name="meta.attr.1.stream.vendor_id.markup">[0][0][0][0]</property>
    <property name="meta.attr.major_brand.markup">isom</property>
    <property name="meta.attr.minor_version.markup">512</property>
    <property name="meta.attr.compatible_brands.markup">isomiso2avc1mp41</property>
    <property name="meta.attr.encoder.markup">Lavf60.3.100</property>
    <property name="seekable">1</property>
    <property name="meta.media.sample_aspect_num">1</property>
    <property name="meta.media.sample_aspect_den">1</property>
    <property name="audio_index">1</property>
    <property name="video_index">0</property>
    <property name="creation_time">2024-04-09T09:33:06</property>
    <property name="vstream">0</property>
    <property name="meta.media.frame_rate_num">30</property>
    <property name="meta.media.frame_rate_den">1</property>
    <property name="meta.media.colorspace">709</property>
    <property name="meta.media.color_trc">1</property>
    <property name="meta.media.has_b_frames">1</property>
    <property name="meta.media.width">1280</property>
    <property name="meta.media.height">720</property>
    <property name="meta.media.aspect_ratio">1</property>
    <property name="meta.media.color_range">mpeg</property>
    <property name="astream">0</property>
    <property name="shotcut:skipConvert">1</property>
    <property name="xml">was here</property>
    <property name="shotcut:hash">200d909cd46d4f89b231db0741454a30</property>
    <property name="meta.media.top_field_first">0</property>
    <property name="meta.media.progressive">1</property>
    <property name="shotcut:caption">2024-04-09_11-32-06.mp4</property>
  </chain>
  <chain id="chain14" out="00:00:36.967">
    <property name="length">00:00:37.000</property>
    <property name="eof">pause</property>
    <property name="resource">C:/Users/lilia/Desktop/SAE 411/Jalon/Jalon rfid/vidéos/IMG_4460.mov</property>
    <property name="mlt_service">avformat-novalidate</property>
    <property name="meta.media.nb_streams">2</property>
    <property name="meta.media.0.stream.type">video</property>
    <property name="meta.media.0.stream.frame_rate">29.973</property>
    <property name="meta.media.0.stream.sample_aspect_ratio">0</property>
    <property name="meta.media.0.codec.width">360</property>
    <property name="meta.media.0.codec.height">640</property>
    <property name="meta.media.0.codec.rotate">0</property>
    <property name="meta.media.0.codec.pix_fmt">yuv420p</property>
    <property name="meta.media.0.codec.sample_aspect_ratio">0</property>
    <property name="meta.media.0.codec.colorspace">709</property>
    <property name="meta.media.0.codec.color_trc">1</property>
    <property name="meta.media.0.codec.name">h264</property>
    <property name="meta.media.0.codec.long_name">H.264 / AVC / MPEG-4 AVC / MPEG-4 part 10</property>
    <property name="meta.media.0.codec.bit_rate">2008859</property>
    <property name="meta.attr.0.stream.creation_time.markup">2024-04-09T09:43:12.000000Z</property>
    <property name="meta.attr.0.stream.handler_name.markup">Core Media Video</property>
    <property name="meta.attr.0.stream.vendor_id.markup">[0][0][0][0]</property>
    <property name="meta.attr.0.stream.encoder.markup">H.264</property>
    <property name="meta.media.1.stream.type">audio</property>
    <property name="meta.media.1.codec.sample_fmt">fltp</property>
    <property name="meta.media.1.codec.sample_rate">44100</property>
    <property name="meta.media.1.codec.channels">2</property>
    <property name="meta.media.1.codec.name">aac</property>
    <property name="meta.media.1.codec.long_name">AAC (Advanced Audio Coding)</property>
    <property name="meta.media.1.codec.bit_rate">125377</property>
    <property name="meta.attr.1.stream.creation_time.markup">2024-04-09T09:43:12.000000Z</property>
    <property name="meta.attr.1.stream.handler_name.markup">Core Media Audio</property>
    <property name="meta.attr.1.stream.vendor_id.markup">[0][0][0][0]</property>
    <property name="meta.attr.major_brand.markup">qt  </property>
    <property name="meta.attr.minor_version.markup">0</property>
    <property name="meta.attr.compatible_brands.markup">qt  </property>
    <property name="meta.attr.creation_time.markup">2024-04-09T09:43:12.000000Z</property>
    <property name="seekable">1</property>
    <property name="meta.media.sample_aspect_num">1</property>
    <property name="meta.media.sample_aspect_den">1</property>
    <property name="audio_index">1</property>
    <property name="video_index">0</property>
    <property name="creation_time">2024-04-09T09:43:12</property>
    <property name="vstream">0</property>
    <property name="meta.media.frame_rate_num">1109</property>
    <property name="meta.media.frame_rate_den">37</property>
    <property name="meta.media.colorspace">709</property>
    <property name="meta.media.color_trc">1</property>
    <property name="meta.media.has_b_frames">0</property>
    <property name="meta.media.width">360</property>
    <property name="meta.media.height">640</property>
    <property name="meta.media.aspect_ratio">1</property>
    <property name="meta.media.color_range">mpeg</property>
    <property name="astream">0</property>
    <property name="shotcut:skipConvert">1</property>
    <property name="xml">was here</property>
    <property name="shotcut:hash">9e19071f61726eb25ead96941e8b9285</property>
    <property name="meta.media.top_field_first">0</property>
    <property name="meta.media.progressive">1</property>
    <property name="shotcut:caption">IMG_4460.mov</property>
  </chain>
  <chain id="chain15" out="00:00:58.800">
    <property name="length">00:00:58.833</property>
    <property name="eof">pause</property>
    <property name="resource">C:/Users/lilia/Desktop/SAE 411/Jalon/Jalon rfid/vidéos/2024-04-09_11-32-06.mp4</property>
    <property name="mlt_service">avformat-novalidate</property>
    <property name="meta.media.nb_streams">2</property>
    <property name="meta.media.0.stream.type">video</property>
    <property name="meta.media.0.stream.frame_rate">30</property>
    <property name="meta.media.0.stream.sample_aspect_ratio">0</property>
    <property name="meta.media.0.codec.width">1280</property>
    <property name="meta.media.0.codec.height">720</property>
    <property name="meta.media.0.codec.rotate">0</property>
    <property name="meta.media.0.codec.pix_fmt">yuv420p</property>
    <property name="meta.media.0.codec.sample_aspect_ratio">1</property>
    <property name="meta.media.0.codec.colorspace">709</property>
    <property name="meta.media.0.codec.color_trc">1</property>
    <property name="meta.media.0.codec.name">h264</property>
    <property name="meta.media.0.codec.long_name">H.264 / AVC / MPEG-4 AVC / MPEG-4 part 10</property>
    <property name="meta.media.0.codec.bit_rate">268623</property>
    <property name="meta.attr.0.stream.handler_name.markup">VideoHandler</property>
    <property name="meta.attr.0.stream.vendor_id.markup">[0][0][0][0]</property>
    <property name="meta.media.1.stream.type">audio</property>
    <property name="meta.media.1.codec.sample_fmt">fltp</property>
    <property name="meta.media.1.codec.sample_rate">44100</property>
    <property name="meta.media.1.codec.channels">2</property>
    <property name="meta.media.1.codec.name">aac</property>
    <property name="meta.media.1.codec.long_name">AAC (Advanced Audio Coding)</property>
    <property name="meta.media.1.codec.bit_rate">2085</property>
    <property name="meta.attr.1.stream.handler_name.markup">SoundHandler</property>
    <property name="meta.attr.1.stream.vendor_id.markup">[0][0][0][0]</property>
    <property name="meta.attr.major_brand.markup">isom</property>
    <property name="meta.attr.minor_version.markup">512</property>
    <property name="meta.attr.compatible_brands.markup">isomiso2avc1mp41</property>
    <property name="meta.attr.encoder.markup">Lavf60.3.100</property>
    <property name="seekable">1</property>
    <property name="meta.media.sample_aspect_num">1</property>
    <property name="meta.media.sample_aspect_den">1</property>
    <property name="audio_index">1</property>
    <property name="video_index">0</property>
    <property name="creation_time">2024-04-09T09:33:06</property>
    <property name="vstream">0</property>
    <property name="meta.media.frame_rate_num">30</property>
    <property name="meta.media.frame_rate_den">1</property>
    <property name="meta.media.colorspace">709</property>
    <property name="meta.media.color_trc">1</property>
    <property name="meta.media.has_b_frames">1</property>
    <property name="meta.media.width">1280</property>
    <property name="meta.media.height">720</property>
    <property name="meta.media.aspect_ratio">1</property>
    <property name="meta.media.color_range">mpeg</property>
    <property name="astream">0</property>
    <property name="shotcut:skipConvert">1</property>
    <property name="xml">was here</property>
    <property name="shotcut:hash">200d909cd46d4f89b231db0741454a30</property>
    <property name="meta.media.top_field_first">0</property>
    <property name="meta.media.progressive">1</property>
    <property name="shotcut:caption">2024-04-09_11-32-06.mp4</property>
  </chain>
  <chain id="chain16" out="00:00:36.967">
    <property name="length">00:00:37.000</property>
    <property name="eof">pause</property>
    <property name="resource">C:/Users/lilia/Desktop/SAE 411/Jalon/Jalon rfid/vidéos/IMG_4460.mov</property>
    <property name="mlt_service">avformat-novalidate</property>
    <property name="meta.media.nb_streams">2</property>
    <property name="meta.media.0.stream.type">video</property>
    <property name="meta.media.0.stream.frame_rate">29.973</property>
    <property name="meta.media.0.stream.sample_aspect_ratio">0</property>
    <property name="meta.media.0.codec.width">360</property>
    <property name="meta.media.0.codec.height">640</property>
    <property name="meta.media.0.codec.rotate">0</property>
    <property name="meta.media.0.codec.pix_fmt">yuv420p</property>
    <property name="meta.media.0.codec.sample_aspect_ratio">0</property>
    <property name="meta.media.0.codec.colorspace">709</property>
    <property name="meta.media.0.codec.color_trc">1</property>
    <property name="meta.media.0.codec.name">h264</property>
    <property name="meta.media.0.codec.long_name">H.264 / AVC / MPEG-4 AVC / MPEG-4 part 10</property>
    <property name="meta.media.0.codec.bit_rate">2008859</property>
    <property name="meta.attr.0.stream.creation_time.markup">2024-04-09T09:43:12.000000Z</property>
    <property name="meta.attr.0.stream.handler_name.markup">Core Media Video</property>
    <property name="meta.attr.0.stream.vendor_id.markup">[0][0][0][0]</property>
    <property name="meta.attr.0.stream.encoder.markup">H.264</property>
    <property name="meta.media.1.stream.type">audio</property>
    <property name="meta.media.1.codec.sample_fmt">fltp</property>
    <property name="meta.media.1.codec.sample_rate">44100</property>
    <property name="meta.media.1.codec.channels">2</property>
    <property name="meta.media.1.codec.name">aac</property>
    <property name="meta.media.1.codec.long_name">AAC (Advanced Audio Coding)</property>
    <property name="meta.media.1.codec.bit_rate">125377</property>
    <property name="meta.attr.1.stream.creation_time.markup">2024-04-09T09:43:12.000000Z</property>
    <property name="meta.attr.1.stream.handler_name.markup">Core Media Audio</property>
    <property name="meta.attr.1.stream.vendor_id.markup">[0][0][0][0]</property>
    <property name="meta.attr.major_brand.markup">qt  </property>
    <property name="meta.attr.minor_version.markup">0</property>
    <property name="meta.attr.compatible_brands.markup">qt  </property>
    <property name="meta.attr.creation_time.markup">2024-04-09T09:43:12.000000Z</property>
    <property name="seekable">1</property>
    <property name="meta.media.sample_aspect_num">1</property>
    <property name="meta.media.sample_aspect_den">1</property>
    <property name="audio_index">1</property>
    <property name="video_index">0</property>
    <property name="creation_time">2024-04-09T09:43:12</property>
    <property name="vstream">0</property>
    <property name="meta.media.frame_rate_num">1109</property>
    <property name="meta.media.frame_rate_den">37</property>
    <property name="meta.media.colorspace">709</property>
    <property name="meta.media.color_trc">1</property>
    <property name="meta.media.has_b_frames">0</property>
    <property name="meta.media.width">360</property>
    <property name="meta.media.height">640</property>
    <property name="meta.media.aspect_ratio">1</property>
    <property name="meta.media.color_range">mpeg</property>
    <property name="astream">0</property>
    <property name="shotcut:skipConvert">1</property>
    <property name="xml">was here</property>
    <property name="shotcut:hash">9e19071f61726eb25ead96941e8b9285</property>
    <property name="meta.media.top_field_first">0</property>
    <property name="meta.media.progressive">1</property>
    <property name="shotcut:caption">IMG_4460.mov</property>
  </chain>
  <chain id="chain17" out="00:00:58.800">
    <property name="length">00:00:58.833</property>
    <property name="eof">pause</property>
    <property name="resource">C:/Users/lilia/Desktop/SAE 411/Jalon/Jalon rfid/vidéos/2024-04-09_11-32-06.mp4</property>
    <property name="mlt_service">avformat-novalidate</property>
    <property name="meta.media.nb_streams">2</property>
    <property name="meta.media.0.stream.type">video</property>
    <property name="meta.media.0.stream.frame_rate">30</property>
    <property name="meta.media.0.stream.sample_aspect_ratio">0</property>
    <property name="meta.media.0.codec.width">1280</property>
    <property name="meta.media.0.codec.height">720</property>
    <property name="meta.media.0.codec.rotate">0</property>
    <property name="meta.media.0.codec.pix_fmt">yuv420p</property>
    <property name="meta.media.0.codec.sample_aspect_ratio">1</property>
    <property name="meta.media.0.codec.colorspace">709</property>
    <property name="meta.media.0.codec.color_trc">1</property>
    <property name="meta.media.0.codec.name">h264</property>
    <property name="meta.media.0.codec.long_name">H.264 / AVC / MPEG-4 AVC / MPEG-4 part 10</property>
    <property name="meta.media.0.codec.bit_rate">268623</property>
    <property name="meta.attr.0.stream.handler_name.markup">VideoHandler</property>
    <property name="meta.attr.0.stream.vendor_id.markup">[0][0][0][0]</property>
    <property name="meta.media.1.stream.type">audio</property>
    <property name="meta.media.1.codec.sample_fmt">fltp</property>
    <property name="meta.media.1.codec.sample_rate">44100</property>
    <property name="meta.media.1.codec.channels">2</property>
    <property name="meta.media.1.codec.name">aac</property>
    <property name="meta.media.1.codec.long_name">AAC (Advanced Audio Coding)</property>
    <property name="meta.media.1.codec.bit_rate">2085</property>
    <property name="meta.attr.1.stream.handler_name.markup">SoundHandler</property>
    <property name="meta.attr.1.stream.vendor_id.markup">[0][0][0][0]</property>
    <property name="meta.attr.major_brand.markup">isom</property>
    <property name="meta.attr.minor_version.markup">512</property>
    <property name="meta.attr.compatible_brands.markup">isomiso2avc1mp41</property>
    <property name="meta.attr.encoder.markup">Lavf60.3.100</property>
    <property name="seekable">1</property>
    <property name="meta.media.sample_aspect_num">1</property>
    <property name="meta.media.sample_aspect_den">1</property>
    <property name="audio_index">1</property>
    <property name="video_index">0</property>
    <property name="creation_time">2024-04-09T09:33:06</property>
    <property name="vstream">0</property>
    <property name="meta.media.frame_rate_num">30</property>
    <property name="meta.media.frame_rate_den">1</property>
    <property name="meta.media.colorspace">709</property>
    <property name="meta.media.color_trc">1</property>
    <property name="meta.media.has_b_frames">1</property>
    <property name="meta.media.width">1280</property>
    <property name="meta.media.height">720</property>
    <property name="meta.media.aspect_ratio">1</property>
    <property name="meta.media.color_range">mpeg</property>
    <property name="astream">0</property>
    <property name="shotcut:skipConvert">1</property>
    <property name="xml">was here</property>
    <property name="shotcut:hash">200d909cd46d4f89b231db0741454a30</property>
    <property name="meta.media.top_field_first">0</property>
    <property name="meta.media.progressive">1</property>
    <property name="shotcut:caption">2024-04-09_11-32-06.mp4</property>
  </chain>
  <chain id="chain18" out="00:00:36.967">
    <property name="length">00:00:37.000</property>
    <property name="eof">pause</property>
    <property name="resource">C:/Users/lilia/Desktop/SAE 411/Jalon/Jalon rfid/vidéos/IMG_4460.mov</property>
    <property name="mlt_service">avformat-novalidate</property>
    <property name="meta.media.nb_streams">2</property>
    <property name="meta.media.0.stream.type">video</property>
    <property name="meta.media.0.stream.frame_rate">29.973</property>
    <property name="meta.media.0.stream.sample_aspect_ratio">0</property>
    <property name="meta.media.0.codec.width">360</property>
    <property name="meta.media.0.codec.height">640</property>
    <property name="meta.media.0.codec.rotate">0</property>
    <property name="meta.media.0.codec.pix_fmt">yuv420p</property>
    <property name="meta.media.0.codec.sample_aspect_ratio">0</property>
    <property name="meta.media.0.codec.colorspace">709</property>
    <property name="meta.media.0.codec.color_trc">1</property>
    <property name="meta.media.0.codec.name">h264</property>
    <property name="meta.media.0.codec.long_name">H.264 / AVC / MPEG-4 AVC / MPEG-4 part 10</property>
    <property name="meta.media.0.codec.bit_rate">2008859</property>
    <property name="meta.attr.0.stream.creation_time.markup">2024-04-09T09:43:12.000000Z</property>
    <property name="meta.attr.0.stream.handler_name.markup">Core Media Video</property>
    <property name="meta.attr.0.stream.vendor_id.markup">[0][0][0][0]</property>
    <property name="meta.attr.0.stream.encoder.markup">H.264</property>
    <property name="meta.media.1.stream.type">audio</property>
    <property name="meta.media.1.codec.sample_fmt">fltp</property>
    <property name="meta.media.1.codec.sample_rate">44100</property>
    <property name="meta.media.1.codec.channels">2</property>
    <property name="meta.media.1.codec.name">aac</property>
    <property name="meta.media.1.codec.long_name">AAC (Advanced Audio Coding)</property>
    <property name="meta.media.1.codec.bit_rate">125377</property>
    <property name="meta.attr.1.stream.creation_time.markup">2024-04-09T09:43:12.000000Z</property>
    <property name="meta.attr.1.stream.handler_name.markup">Core Media Audio</property>
    <property name="meta.attr.1.stream.vendor_id.markup">[0][0][0][0]</property>
    <property name="meta.attr.major_brand.markup">qt  </property>
    <property name="meta.attr.minor_version.markup">0</property>
    <property name="meta.attr.compatible_brands.markup">qt  </property>
    <property name="meta.attr.creation_time.markup">2024-04-09T09:43:12.000000Z</property>
    <property name="seekable">1</property>
    <property name="meta.media.sample_aspect_num">1</property>
    <property name="meta.media.sample_aspect_den">1</property>
    <property name="audio_index">1</property>
    <property name="video_index">0</property>
    <property name="creation_time">2024-04-09T09:43:12</property>
    <property name="vstream">0</property>
    <property name="meta.media.frame_rate_num">1109</property>
    <property name="meta.media.frame_rate_den">37</property>
    <property name="meta.media.colorspace">709</property>
    <property name="meta.media.color_trc">1</property>
    <property name="meta.media.has_b_frames">0</property>
    <property name="meta.media.width">360</property>
    <property name="meta.media.height">640</property>
    <property name="meta.media.aspect_ratio">1</property>
    <property name="meta.media.color_range">mpeg</property>
    <property name="astream">0</property>
    <property name="shotcut:skipConvert">1</property>
    <property name="xml">was here</property>
    <property name="shotcut:hash">9e19071f61726eb25ead96941e8b9285</property>
    <property name="meta.media.top_field_first">0</property>
    <property name="meta.media.progressive">1</property>
    <property name="shotcut:caption">IMG_4460.mov</property>
  </chain>
  <chain id="chain19" out="00:00:23.533">
    <property name="length">00:00:23.567</property>
    <property name="eof">pause</property>
    <property name="resource">C:/Users/lilia/Desktop/SAE 411/Jalon/Jalon rfid/vidéos/2024-04-09_11-33-37.mp4</property>
    <property name="mlt_service">avformat-novalidate</property>
    <property name="meta.media.nb_streams">2</property>
    <property name="meta.media.0.stream.type">video</property>
    <property name="meta.media.0.stream.frame_rate">30</property>
    <property name="meta.media.0.stream.sample_aspect_ratio">0</property>
    <property name="meta.media.0.codec.width">1280</property>
    <property name="meta.media.0.codec.height">720</property>
    <property name="meta.media.0.codec.rotate">0</property>
    <property name="meta.media.0.codec.pix_fmt">yuv420p</property>
    <property name="meta.media.0.codec.sample_aspect_ratio">1</property>
    <property name="meta.media.0.codec.colorspace">709</property>
    <property name="meta.media.0.codec.color_trc">1</property>
    <property name="meta.media.0.codec.name">h264</property>
    <property name="meta.media.0.codec.long_name">H.264 / AVC / MPEG-4 AVC / MPEG-4 part 10</property>
    <property name="meta.media.0.codec.bit_rate">249065</property>
    <property name="meta.attr.0.stream.handler_name.markup">VideoHandler</property>
    <property name="meta.attr.0.stream.vendor_id.markup">[0][0][0][0]</property>
    <property name="meta.media.1.stream.type">audio</property>
    <property name="meta.media.1.codec.sample_fmt">fltp</property>
    <property name="meta.media.1.codec.sample_rate">44100</property>
    <property name="meta.media.1.codec.channels">2</property>
    <property name="meta.media.1.codec.name">aac</property>
    <property name="meta.media.1.codec.long_name">AAC (Advanced Audio Coding)</property>
    <property name="meta.media.1.codec.bit_rate">2082</property>
    <property name="meta.attr.1.stream.handler_name.markup">SoundHandler</property>
    <property name="meta.attr.1.stream.vendor_id.markup">[0][0][0][0]</property>
    <property name="meta.attr.major_brand.markup">isom</property>
    <property name="meta.attr.minor_version.markup">512</property>
    <property name="meta.attr.compatible_brands.markup">isomiso2avc1mp41</property>
    <property name="meta.attr.encoder.markup">Lavf60.3.100</property>
    <property name="seekable">1</property>
    <property name="meta.media.sample_aspect_num">1</property>
    <property name="meta.media.sample_aspect_den">1</property>
    <property name="audio_index">1</property>
    <property name="video_index">0</property>
    <property name="creation_time">2024-04-09T09:34:01</property>
    <property name="vstream">0</property>
    <property name="meta.media.frame_rate_num">30</property>
    <property name="meta.media.frame_rate_den">1</property>
    <property name="meta.media.colorspace">709</property>
    <property name="meta.media.color_trc">1</property>
    <property name="meta.media.has_b_frames">1</property>
    <property name="meta.media.width">1280</property>
    <property name="meta.media.height">720</property>
    <property name="meta.media.aspect_ratio">1</property>
    <property name="meta.media.color_range">mpeg</property>
    <property name="astream">0</property>
    <property name="shotcut:skipConvert">1</property>
    <property name="xml">was here</property>
    <property name="shotcut:hash">068217c52d5a46f6406e0bab7bc9cd67</property>
    <property name="meta.media.top_field_first">0</property>
    <property name="meta.media.progressive">1</property>
    <property name="shotcut:caption">2024-04-09_11-33-37.mp4</property>
  </chain>
  <chain id="chain20" out="00:00:36.967">
    <property name="length">00:00:37.000</property>
    <property name="eof">pause</property>
    <property name="resource">C:/Users/lilia/Desktop/SAE 411/Jalon/Jalon rfid/vidéos/IMG_4460.mov</property>
    <property name="mlt_service">avformat-novalidate</property>
    <property name="meta.media.nb_streams">2</property>
    <property name="meta.media.0.stream.type">video</property>
    <property name="meta.media.0.stream.frame_rate">29.973</property>
    <property name="meta.media.0.stream.sample_aspect_ratio">0</property>
    <property name="meta.media.0.codec.width">360</property>
    <property name="meta.media.0.codec.height">640</property>
    <property name="meta.media.0.codec.rotate">0</property>
    <property name="meta.media.0.codec.pix_fmt">yuv420p</property>
    <property name="meta.media.0.codec.sample_aspect_ratio">0</property>
    <property name="meta.media.0.codec.colorspace">709</property>
    <property name="meta.media.0.codec.color_trc">1</property>
    <property name="meta.media.0.codec.name">h264</property>
    <property name="meta.media.0.codec.long_name">H.264 / AVC / MPEG-4 AVC / MPEG-4 part 10</property>
    <property name="meta.media.0.codec.bit_rate">2008859</property>
    <property name="meta.attr.0.stream.creation_time.markup">2024-04-09T09:43:12.000000Z</property>
    <property name="meta.attr.0.stream.handler_name.markup">Core Media Video</property>
    <property name="meta.attr.0.stream.vendor_id.markup">[0][0][0][0]</property>
    <property name="meta.attr.0.stream.encoder.markup">H.264</property>
    <property name="meta.media.1.stream.type">audio</property>
    <property name="meta.media.1.codec.sample_fmt">fltp</property>
    <property name="meta.media.1.codec.sample_rate">44100</property>
    <property name="meta.media.1.codec.channels">2</property>
    <property name="meta.media.1.codec.name">aac</property>
    <property name="meta.media.1.codec.long_name">AAC (Advanced Audio Coding)</property>
    <property name="meta.media.1.codec.bit_rate">125377</property>
    <property name="meta.attr.1.stream.creation_time.markup">2024-04-09T09:43:12.000000Z</property>
    <property name="meta.attr.1.stream.handler_name.markup">Core Media Audio</property>
    <property name="meta.attr.1.stream.vendor_id.markup">[0][0][0][0]</property>
    <property name="meta.attr.major_brand.markup">qt  </property>
    <property name="meta.attr.minor_version.markup">0</property>
    <property name="meta.attr.compatible_brands.markup">qt  </property>
    <property name="meta.attr.creation_time.markup">2024-04-09T09:43:12.000000Z</property>
    <property name="seekable">1</property>
    <property name="meta.media.sample_aspect_num">1</property>
    <property name="meta.media.sample_aspect_den">1</property>
    <property name="audio_index">1</property>
    <property name="video_index">0</property>
    <property name="creation_time">2024-04-09T09:43:12</property>
    <property name="vstream">0</property>
    <property name="meta.media.frame_rate_num">1109</property>
    <property name="meta.media.frame_rate_den">37</property>
    <property name="meta.media.colorspace">709</property>
    <property name="meta.media.color_trc">1</property>
    <property name="meta.media.has_b_frames">0</property>
    <property name="meta.media.width">360</property>
    <property name="meta.media.height">640</property>
    <property name="meta.media.aspect_ratio">1</property>
    <property name="meta.media.color_range">mpeg</property>
    <property name="astream">0</property>
    <property name="shotcut:skipConvert">1</property>
    <property name="xml">was here</property>
    <property name="shotcut:hash">9e19071f61726eb25ead96941e8b9285</property>
    <property name="meta.media.top_field_first">0</property>
    <property name="meta.media.progressive">1</property>
    <property name="shotcut:caption">IMG_4460.mov</property>
  </chain>
  <chain id="chain21" out="00:00:23.533">
    <property name="length">00:00:23.567</property>
    <property name="eof">pause</property>
    <property name="resource">C:/Users/lilia/Desktop/SAE 411/Jalon/Jalon rfid/vidéos/2024-04-09_11-33-37.mp4</property>
    <property name="mlt_service">avformat-novalidate</property>
    <property name="meta.media.nb_streams">2</property>
    <property name="meta.media.0.stream.type">video</property>
    <property name="meta.media.0.stream.frame_rate">30</property>
    <property name="meta.media.0.stream.sample_aspect_ratio">0</property>
    <property name="meta.media.0.codec.width">1280</property>
    <property name="meta.media.0.codec.height">720</property>
    <property name="meta.media.0.codec.rotate">0</property>
    <property name="meta.media.0.codec.pix_fmt">yuv420p</property>
    <property name="meta.media.0.codec.sample_aspect_ratio">1</property>
    <property name="meta.media.0.codec.colorspace">709</property>
    <property name="meta.media.0.codec.color_trc">1</property>
    <property name="meta.media.0.codec.name">h264</property>
    <property name="meta.media.0.codec.long_name">H.264 / AVC / MPEG-4 AVC / MPEG-4 part 10</property>
    <property name="meta.media.0.codec.bit_rate">249065</property>
    <property name="meta.attr.0.stream.handler_name.markup">VideoHandler</property>
    <property name="meta.attr.0.stream.vendor_id.markup">[0][0][0][0]</property>
    <property name="meta.media.1.stream.type">audio</property>
    <property name="meta.media.1.codec.sample_fmt">fltp</property>
    <property name="meta.media.1.codec.sample_rate">44100</property>
    <property name="meta.media.1.codec.channels">2</property>
    <property name="meta.media.1.codec.name">aac</property>
    <property name="meta.media.1.codec.long_name">AAC (Advanced Audio Coding)</property>
    <property name="meta.media.1.codec.bit_rate">2082</property>
    <property name="meta.attr.1.stream.handler_name.markup">SoundHandler</property>
    <property name="meta.attr.1.stream.vendor_id.markup">[0][0][0][0]</property>
    <property name="meta.attr.major_brand.markup">isom</property>
    <property name="meta.attr.minor_version.markup">512</property>
    <property name="meta.attr.compatible_brands.markup">isomiso2avc1mp41</property>
    <property name="meta.attr.encoder.markup">Lavf60.3.100</property>
    <property name="seekable">1</property>
    <property name="meta.media.sample_aspect_num">1</property>
    <property name="meta.media.sample_aspect_den">1</property>
    <property name="audio_index">1</property>
    <property name="video_index">0</property>
    <property name="creation_time">2024-04-09T09:34:01</property>
    <property name="vstream">0</property>
    <property name="meta.media.frame_rate_num">30</property>
    <property name="meta.media.frame_rate_den">1</property>
    <property name="meta.media.colorspace">709</property>
    <property name="meta.media.color_trc">1</property>
    <property name="meta.media.has_b_frames">1</property>
    <property name="meta.media.width">1280</property>
    <property name="meta.media.height">720</property>
    <property name="meta.media.aspect_ratio">1</property>
    <property name="meta.media.color_range">mpeg</property>
    <property name="astream">0</property>
    <property name="shotcut:skipConvert">1</property>
    <property name="xml">was here</property>
    <property name="shotcut:hash">068217c52d5a46f6406e0bab7bc9cd67</property>
    <property name="meta.media.top_field_first">0</property>
    <property name="meta.media.progressive">1</property>
    <property name="shotcut:caption">2024-04-09_11-33-37.mp4</property>
  </chain>
  <chain id="chain22" out="00:00:36.967">
    <property name="length">00:00:37.000</property>
    <property name="eof">pause</property>
    <property name="resource">C:/Users/lilia/Desktop/SAE 411/Jalon/Jalon rfid/vidéos/IMG_4460.mov</property>
    <property name="mlt_service">avformat-novalidate</property>
    <property name="meta.media.nb_streams">2</property>
    <property name="meta.media.0.stream.type">video</property>
    <property name="meta.media.0.stream.frame_rate">29.973</property>
    <property name="meta.media.0.stream.sample_aspect_ratio">0</property>
    <property name="meta.media.0.codec.width">360</property>
    <property name="meta.media.0.codec.height">640</property>
    <property name="meta.media.0.codec.rotate">0</property>
    <property name="meta.media.0.codec.pix_fmt">yuv420p</property>
    <property name="meta.media.0.codec.sample_aspect_ratio">0</property>
    <property name="meta.media.0.codec.colorspace">709</property>
    <property name="meta.media.0.codec.color_trc">1</property>
    <property name="meta.media.0.codec.name">h264</property>
    <property name="meta.media.0.codec.long_name">H.264 / AVC / MPEG-4 AVC / MPEG-4 part 10</property>
    <property name="meta.media.0.codec.bit_rate">2008859</property>
    <property name="meta.attr.0.stream.creation_time.markup">2024-04-09T09:43:12.000000Z</property>
    <property name="meta.attr.0.stream.handler_name.markup">Core Media Video</property>
    <property name="meta.attr.0.stream.vendor_id.markup">[0][0][0][0]</property>
    <property name="meta.attr.0.stream.encoder.markup">H.264</property>
    <property name="meta.media.1.stream.type">audio</property>
    <property name="meta.media.1.codec.sample_fmt">fltp</property>
    <property name="meta.media.1.codec.sample_rate">44100</property>
    <property name="meta.media.1.codec.channels">2</property>
    <property name="meta.media.1.codec.name">aac</property>
    <property name="meta.media.1.codec.long_name">AAC (Advanced Audio Coding)</property>
    <property name="meta.media.1.codec.bit_rate">125377</property>
    <property name="meta.attr.1.stream.creation_time.markup">2024-04-09T09:43:12.000000Z</property>
    <property name="meta.attr.1.stream.handler_name.markup">Core Media Audio</property>
    <property name="meta.attr.1.stream.vendor_id.markup">[0][0][0][0]</property>
    <property name="meta.attr.major_brand.markup">qt  </property>
    <property name="meta.attr.minor_version.markup">0</property>
    <property name="meta.attr.compatible_brands.markup">qt  </property>
    <property name="meta.attr.creation_time.markup">2024-04-09T09:43:12.000000Z</property>
    <property name="seekable">1</property>
    <property name="meta.media.sample_aspect_num">1</property>
    <property name="meta.media.sample_aspect_den">1</property>
    <property name="audio_index">1</property>
    <property name="video_index">0</property>
    <property name="creation_time">2024-04-09T09:43:12</property>
    <property name="vstream">0</property>
    <property name="meta.media.frame_rate_num">1109</property>
    <property name="meta.media.frame_rate_den">37</property>
    <property name="meta.media.colorspace">709</property>
    <property name="meta.media.color_trc">1</property>
    <property name="meta.media.has_b_frames">0</property>
    <property name="meta.media.width">360</property>
    <property name="meta.media.height">640</property>
    <property name="meta.media.aspect_ratio">1</property>
    <property name="meta.media.color_range">mpeg</property>
    <property name="astream">0</property>
    <property name="shotcut:skipConvert">1</property>
    <property name="xml">was here</property>
    <property name="shotcut:hash">9e19071f61726eb25ead96941e8b9285</property>
    <property name="meta.media.top_field_first">0</property>
    <property name="meta.media.progressive">1</property>
    <property name="shotcut:caption">IMG_4460.mov</property>
  </chain>
  <chain id="chain23" out="00:00:23.533">
    <property name="length">00:00:23.567</property>
    <property name="eof">pause</property>
    <property name="resource">C:/Users/lilia/Desktop/SAE 411/Jalon/Jalon rfid/vidéos/2024-04-09_11-33-37.mp4</property>
    <property name="mlt_service">avformat-novalidate</property>
    <property name="meta.media.nb_streams">2</property>
    <property name="meta.media.0.stream.type">video</property>
    <property name="meta.media.0.stream.frame_rate">30</property>
    <property name="meta.media.0.stream.sample_aspect_ratio">0</property>
    <property name="meta.media.0.codec.width">1280</property>
    <property name="meta.media.0.codec.height">720</property>
    <property name="meta.media.0.codec.rotate">0</property>
    <property name="meta.media.0.codec.pix_fmt">yuv420p</property>
    <property name="meta.media.0.codec.sample_aspect_ratio">1</property>
    <property name="meta.media.0.codec.colorspace">709</property>
    <property name="meta.media.0.codec.color_trc">1</property>
    <property name="meta.media.0.codec.name">h264</property>
    <property name="meta.media.0.codec.long_name">H.264 / AVC / MPEG-4 AVC / MPEG-4 part 10</property>
    <property name="meta.media.0.codec.bit_rate">249065</property>
    <property name="meta.attr.0.stream.handler_name.markup">VideoHandler</property>
    <property name="meta.attr.0.stream.vendor_id.markup">[0][0][0][0]</property>
    <property name="meta.media.1.stream.type">audio</property>
    <property name="meta.media.1.codec.sample_fmt">fltp</property>
    <property name="meta.media.1.codec.sample_rate">44100</property>
    <property name="meta.media.1.codec.channels">2</property>
    <property name="meta.media.1.codec.name">aac</property>
    <property name="meta.media.1.codec.long_name">AAC (Advanced Audio Coding)</property>
    <property name="meta.media.1.codec.bit_rate">2082</property>
    <property name="meta.attr.1.stream.handler_name.markup">SoundHandler</property>
    <property name="meta.attr.1.stream.vendor_id.markup">[0][0][0][0]</property>
    <property name="meta.attr.major_brand.markup">isom</property>
    <property name="meta.attr.minor_version.markup">512</property>
    <property name="meta.attr.compatible_brands.markup">isomiso2avc1mp41</property>
    <property name="meta.attr.encoder.markup">Lavf60.3.100</property>
    <property name="seekable">1</property>
    <property name="meta.media.sample_aspect_num">1</property>
    <property name="meta.media.sample_aspect_den">1</property>
    <property name="audio_index">1</property>
    <property name="video_index">0</property>
    <property name="creation_time">2024-04-09T09:34:01</property>
    <property name="vstream">0</property>
    <property name="meta.media.frame_rate_num">30</property>
    <property name="meta.media.frame_rate_den">1</property>
    <property name="meta.media.colorspace">709</property>
    <property name="meta.media.color_trc">1</property>
    <property name="meta.media.has_b_frames">1</property>
    <property name="meta.media.width">1280</property>
    <property name="meta.media.height">720</property>
    <property name="meta.media.aspect_ratio">1</property>
    <property name="meta.media.color_range">mpeg</property>
    <property name="astream">0</property>
    <property name="shotcut:skipConvert">1</property>
    <property name="xml">was here</property>
    <property name="shotcut:hash">068217c52d5a46f6406e0bab7bc9cd67</property>
    <property name="meta.media.top_field_first">0</property>
    <property name="meta.media.progressive">1</property>
    <property name="shotcut:caption">2024-04-09_11-33-37.mp4</property>
  </chain>
  <chain id="chain24" out="00:00:36.967">
    <property name="length">00:00:37.000</property>
    <property name="eof">pause</property>
    <property name="resource">C:/Users/lilia/Desktop/SAE 411/Jalon/Jalon rfid/vidéos/IMG_4460.mov</property>
    <property name="mlt_service">avformat-novalidate</property>
    <property name="meta.media.nb_streams">2</property>
    <property name="meta.media.0.stream.type">video</property>
    <property name="meta.media.0.stream.frame_rate">29.973</property>
    <property name="meta.media.0.stream.sample_aspect_ratio">0</property>
    <property name="meta.media.0.codec.width">360</property>
    <property name="meta.media.0.codec.height">640</property>
    <property name="meta.media.0.codec.rotate">0</property>
    <property name="meta.media.0.codec.pix_fmt">yuv420p</property>
    <property name="meta.media.0.codec.sample_aspect_ratio">0</property>
    <property name="meta.media.0.codec.colorspace">709</property>
    <property name="meta.media.0.codec.color_trc">1</property>
    <property name="meta.media.0.codec.name">h264</property>
    <property name="meta.media.0.codec.long_name">H.264 / AVC / MPEG-4 AVC / MPEG-4 part 10</property>
    <property name="meta.media.0.codec.bit_rate">2008859</property>
    <property name="meta.attr.0.stream.creation_time.markup">2024-04-09T09:43:12.000000Z</property>
    <property name="meta.attr.0.stream.handler_name.markup">Core Media Video</property>
    <property name="meta.attr.0.stream.vendor_id.markup">[0][0][0][0]</property>
    <property name="meta.attr.0.stream.encoder.markup">H.264</property>
    <property name="meta.media.1.stream.type">audio</property>
    <property name="meta.media.1.codec.sample_fmt">fltp</property>
    <property name="meta.media.1.codec.sample_rate">44100</property>
    <property name="meta.media.1.codec.channels">2</property>
    <property name="meta.media.1.codec.name">aac</property>
    <property name="meta.media.1.codec.long_name">AAC (Advanced Audio Coding)</property>
    <property name="meta.media.1.codec.bit_rate">125377</property>
    <property name="meta.attr.1.stream.creation_time.markup">2024-04-09T09:43:12.000000Z</property>
    <property name="meta.attr.1.stream.handler_name.markup">Core Media Audio</property>
    <property name="meta.attr.1.stream.vendor_id.markup">[0][0][0][0]</property>
    <property name="meta.attr.major_brand.markup">qt  </property>
    <property name="meta.attr.minor_version.markup">0</property>
    <property name="meta.attr.compatible_brands.markup">qt  </property>
    <property name="meta.attr.creation_time.markup">2024-04-09T09:43:12.000000Z</property>
    <property name="seekable">1</property>
    <property name="meta.media.sample_aspect_num">1</property>
    <property name="meta.media.sample_aspect_den">1</property>
    <property name="audio_index">1</property>
    <property name="video_index">0</property>
    <property name="creation_time">2024-04-09T09:43:12</property>
    <property name="vstream">0</property>
    <property name="meta.media.frame_rate_num">1109</property>
    <property name="meta.media.frame_rate_den">37</property>
    <property name="meta.media.colorspace">709</property>
    <property name="meta.media.color_trc">1</property>
    <property name="meta.media.has_b_frames">0</property>
    <property name="meta.media.width">360</property>
    <property name="meta.media.height">640</property>
    <property name="meta.media.aspect_ratio">1</property>
    <property name="meta.media.color_range">mpeg</property>
    <property name="astream">0</property>
    <property name="shotcut:skipConvert">1</property>
    <property name="xml">was here</property>
    <property name="shotcut:hash">9e19071f61726eb25ead96941e8b9285</property>
    <property name="meta.media.top_field_first">0</property>
    <property name="meta.media.progressive">1</property>
    <property name="shotcut:caption">IMG_4460.mov</property>
  </chain>
  <chain id="chain25" out="00:00:52.267">
    <property name="length">00:00:52.300</property>
    <property name="eof">pause</property>
    <property name="resource">C:/Users/lilia/Desktop/SAE 411/Jalon/Jalon rfid/vidéos/2024-04-09_14-32-42.mp4</property>
    <property name="mlt_service">avformat-novalidate</property>
    <property name="meta.media.nb_streams">2</property>
    <property name="meta.media.0.stream.type">video</property>
    <property name="meta.media.0.stream.frame_rate">30</property>
    <property name="meta.media.0.stream.sample_aspect_ratio">0</property>
    <property name="meta.media.0.codec.width">1280</property>
    <property name="meta.media.0.codec.height">720</property>
    <property name="meta.media.0.codec.rotate">0</property>
    <property name="meta.media.0.codec.pix_fmt">yuv420p</property>
    <property name="meta.media.0.codec.sample_aspect_ratio">1</property>
    <property name="meta.media.0.codec.colorspace">709</property>
    <property name="meta.media.0.codec.color_trc">1</property>
    <property name="meta.media.0.codec.name">h264</property>
    <property name="meta.media.0.codec.long_name">H.264 / AVC / MPEG-4 AVC / MPEG-4 part 10</property>
    <property name="meta.media.0.codec.bit_rate">311345</property>
    <property name="meta.attr.0.stream.handler_name.markup">VideoHandler</property>
    <property name="meta.attr.0.stream.vendor_id.markup">[0][0][0][0]</property>
    <property name="meta.media.1.stream.type">audio</property>
    <property name="meta.media.1.codec.sample_fmt">fltp</property>
    <property name="meta.media.1.codec.sample_rate">44100</property>
    <property name="meta.media.1.codec.channels">2</property>
    <property name="meta.media.1.codec.name">aac</property>
    <property name="meta.media.1.codec.long_name">AAC (Advanced Audio Coding)</property>
    <property name="meta.media.1.codec.bit_rate">2085</property>
    <property name="meta.attr.1.stream.handler_name.markup">SoundHandler</property>
    <property name="meta.attr.1.stream.vendor_id.markup">[0][0][0][0]</property>
    <property name="meta.attr.major_brand.markup">isom</property>
    <property name="meta.attr.minor_version.markup">512</property>
    <property name="meta.attr.compatible_brands.markup">isomiso2avc1mp41</property>
    <property name="meta.attr.encoder.markup">Lavf60.3.100</property>
    <property name="seekable">1</property>
    <property name="meta.media.sample_aspect_num">1</property>
    <property name="meta.media.sample_aspect_den">1</property>
    <property name="audio_index">1</property>
    <property name="video_index">0</property>
    <property name="creation_time">2024-04-09T12:33:35</property>
    <property name="vstream">0</property>
    <property name="meta.media.frame_rate_num">30</property>
    <property name="meta.media.frame_rate_den">1</property>
    <property name="meta.media.colorspace">709</property>
    <property name="meta.media.color_trc">1</property>
    <property name="meta.media.has_b_frames">1</property>
    <property name="meta.media.width">1280</property>
    <property name="meta.media.height">720</property>
    <property name="meta.media.aspect_ratio">1</property>
    <property name="meta.media.color_range">mpeg</property>
    <property name="astream">0</property>
    <property name="shotcut:skipConvert">1</property>
    <property name="xml">was here</property>
    <property name="shotcut:hash">db1269e0f0112aa337cdedeaba600d76</property>
    <property name="meta.media.top_field_first">0</property>
    <property name="meta.media.progressive">1</property>
    <property name="shotcut:caption">2024-04-09_14-32-42.mp4</property>
  </chain>
  <playlist id="playlist0">
    <property name="shotcut:video">1</property>
    <property name="shotcut:name">V1</property>
    <entry producer="chain6" in="00:00:31.433" out="00:00:36.967"/>
    <entry producer="chain7" in="00:00:42.000" out="00:00:48.467"/>
    <entry producer="chain8" in="00:00:15.533" out="00:00:18.567"/>
    <entry producer="chain9" in="00:00:18.600" out="00:00:24.267"/>
    <entry producer="chain10" in="00:00:24.333" out="00:00:26.000"/>
    <entry producer="chain11" in="00:00:24.300" out="00:00:29.300"/>
    <entry producer="chain12" in="00:00:26.033" out="00:00:29.167"/>
    <entry producer="chain13" in="00:00:29.333" out="00:00:34.167"/>
    <entry producer="chain14" in="00:00:01.967" out="00:00:07.567"/>
    <entry producer="chain15" in="00:00:36.567" out="00:00:43.667"/>
    <entry producer="chain16" in="00:00:09.767" out="00:00:15.500"/>
    <entry producer="chain17" in="00:00:47.233" out="00:00:54.800"/>
    <entry producer="chain18" in="00:00:15.533" out="00:00:18.567"/>
    <entry producer="chain19" in="00:00:04.300" out="00:00:09.000"/>
    <entry producer="chain20" in="00:00:24.333" out="00:00:26.000"/>
    <entry producer="chain21" in="00:00:10.067" out="00:00:14.700"/>
    <entry producer="chain22" in="00:00:26.033" out="00:00:29.167"/>
    <entry producer="chain23" in="00:00:16.500" out="00:00:20.967"/>
    <entry producer="chain24" in="00:00:31.433" out="00:00:36.967"/>
    <entry producer="chain25" in="00:00:42.000" out="00:00:48.467"/>
  </playlist>
  <tractor id="tractor0" title="Shotcut version 24.02.29" in="00:00:00.000" out="00:01:35.600">
    <property name="shotcut">1</property>
    <property name="shotcut:projectAudioChannels">2</property>
    <property name="shotcut:projectFolder">1</property>
    <track producer="background"/>
    <track producer="playlist0" hide="audio"/>
    <transition id="transition0">
      <property name="a_track">0</property>
      <property name="b_track">1</property>
      <property name="mlt_service">mix</property>
      <property name="always_active">1</property>
      <property name="sum">1</property>
    </transition>
    <transition id="transition1">
      <property name="a_track">0</property>
      <property name="b_track">1</property>
      <property name="version">0.1</property>
      <property name="mlt_service">frei0r.cairoblend</property>
      <property name="threads">0</property>
      <property name="disable">1</property>
    </transition>
  </tractor>
</mlt>
